<svg viewBox="0 0 32 32" fill="none" xmlns="http://www.w3.org/2000/svg">
  <defs>
    <linearGradient id="chiliGrad" x1="12" y1="9" x2="23" y2="27" gradientUnits="userSpaceOnUse">
      <stop offset="0%" stopColor="#EF4444" />
      <stop offset="100%" stopColor="#991B1B" />
    </linearGradient>
    <linearGradient id="leafGrad" x1="17.5" y1="7" x2="24" y2="13.5" gradientUnits="userSpaceOnUse">
      <stop offset="0%" stopColor="#34D399" />
      <stop offset="100%" stopColor="#059669" />
    </linearGradient>
    <linearGradient id="bgGrad" x1="3" y1="3" x2="29" y2="29" gradientUnits="userSpaceOnUse">
      <stop offset="0%" stopColor="#F0FDF4" />
      <stop offset="100%" stopColor="#DCFCE7" />
    </linearGradient>
  </defs>
  <circle cx="16" cy="16" r="13" fill="url(#bgGrad)" stroke="#A7F3D0" strokeWidth="1" />
  <path d="M18 9C18 9 19.5 11.5 18 13.5C16 16 13.5 16 12 19C10 23 12 26.5 15.5 27C19 27.5 22.5 25 23 20.5C23.5 16 21 11.5 18 9Z" fill="url(#chiliGrad)" />
  <path d="M18 9C19.5 7.5 22 7 24 8.5C22 10 20 10.5 17.5 13.5C17.3 13.2 17.4 12.8 17.5 12.5C17.7 12.2 18 9 18 9Z" fill="url(#leafGrad)" />
  <path d="M8 12H12M10 10V14" stroke="#10B981" strokeWidth="2" strokeLinecap="round" />
</svg>
